<?xml version="1.0" encoding="UTF-8" standalone="no"?>
<!DOCTYPE svg PUBLIC "-//W3C//DTD SVG 1.1//EN"
 "http://www.w3.org/Graphics/SVG/1.1/DTD/svg11.dtd">
<!-- Generated by graphviz version 2.40.1 (20161225.0304)
 -->
<!-- Title: G Pages: 1 -->
<svg width="172pt" height="116pt"
 viewBox="0.00 0.00 172.27 116.00" xmlns="http://www.w3.org/2000/svg" xmlns:xlink="http://www.w3.org/1999/xlink">
<g id="graph0" class="graph" transform="scale(1 1) rotate(0) translate(4 112)">
<title>G</title>
<polygon fill="#ffffff" stroke="transparent" points="-4,4 -4,-112 168.2658,-112 168.2658,4 -4,4"/>
<!-- &#45;2.0,&#45;1.5,&#45;.5,0.0 -->
<g id="node1" class="node">
<title>&#45;2.0,&#45;1.5,&#45;.5,0.0</title>
<ellipse fill="none" stroke="#000000" cx="85.3162" cy="-90" rx="65.24" ry="18"/>
<text text-anchor="middle" x="85.3162" y="-85.8" font-family="Times,serif" font-size="14.00" fill="#000000">&#45;2.0,&#45;1.5,&#45;.5,0.0</text>
</g>
<!-- &#45;2.0,&#45;1.5 -->
<g id="node2" class="node">
<title>&#45;2.0,&#45;1.5</title>
<ellipse fill="none" stroke="#000000" cx="40.3162" cy="-18" rx="40.1333" ry="18"/>
<text text-anchor="middle" x="40.3162" y="-13.8" font-family="Times,serif" font-size="14.00" fill="#000000">&#45;2.0,&#45;1.5</text>
</g>
<!-- &#45;2.0,&#45;1.5,&#45;.5,0.0&#45;&gt;&#45;2.0,&#45;1.5 -->
<g id="edge1" class="edge">
<title>&#45;2.0,&#45;1.5,&#45;.5,0.0&#45;&gt;&#45;2.0,&#45;1.5</title>
<path fill="none" stroke="#000000" d="M74.1926,-72.2022C68.8673,-63.6817 62.3881,-53.315 56.5278,-43.9385"/>
<polygon fill="#000000" stroke="#000000" points="59.4246,-41.9696 51.1566,-35.3446 53.4886,-45.6796 59.4246,-41.9696"/>
</g>
<!-- &#45;.5,0.0 -->
<g id="node3" class="node">
<title>&#45;.5,0.0</title>
<ellipse fill="none" stroke="#000000" cx="131.3162" cy="-18" rx="32.8992" ry="18"/>
<text text-anchor="middle" x="131.3162" y="-13.8" font-family="Times,serif" font-size="14.00" fill="#000000">&#45;.5,0.0</text>
</g>
<!-- &#45;2.0,&#45;1.5,&#45;.5,0.0&#45;&gt;&#45;.5,0.0 -->
<g id="edge2" class="edge">
<title>&#45;2.0,&#45;1.5,&#45;.5,0.0&#45;&gt;&#45;.5,0.0</title>
<path fill="none" stroke="#000000" d="M96.687,-72.2022C102.171,-63.6186 108.8521,-53.1613 114.8775,-43.7303"/>
<polygon fill="#000000" stroke="#000000" points="117.9585,-45.4086 120.393,-35.0972 112.0596,-41.6398 117.9585,-45.4086"/>
</g>
</g>
</svg>
